<svg xmlns="http://www.w3.org/2000/svg" width="34.461" height="34.73" viewBox="0 0 34.461 34.73"><g transform="translate(-0.109)"><rect width="32" height="33" rx="16" transform="translate(1.344 0.73)"/><rect width="25" height="30" transform="translate(5.344 4.73)" fill="#efeff4"/><g transform="translate(0.109)"><path d="M30.153,0H4.308A4.312,4.312,0,0,0,0,4.308V30.153a4.312,4.312,0,0,0,4.308,4.308H17.231V22.615H12.923V17.23h4.308V12.923a6.461,6.461,0,0,1,6.461-6.461H28v5.385H25.846c-1.189,0-2.154-.112-2.154,1.077V17.23h5.385l-2.154,5.385H23.692V34.461h6.461a4.312,4.312,0,0,0,4.308-4.308V4.308A4.312,4.312,0,0,0,30.153,0Z" fill="#4d4d4d"/></g></g></svg>