<svg xmlns="http://www.w3.org/2000/svg" width="34.461" height="34.461" viewBox="0 0 34.461 34.461"><g transform="translate(0)"><rect width="33" height="33" rx="16.5" transform="translate(0.573 0.73)"/><rect width="25" height="29" transform="translate(4.573 2.73)" fill="#efeff4"/><path d="M31.976,0H2.486A2.485,2.485,0,0,0,0,2.485v29.49a2.485,2.485,0,0,0,2.485,2.485h29.49a2.485,2.485,0,0,0,2.485-2.485V2.485A2.485,2.485,0,0,0,31.976,0ZM12.224,26.048h-4.2V13.423h4.2ZM10.126,11.7H10.1a2.187,2.187,0,1,1,.055-4.362,2.188,2.188,0,1,1-.028,4.362ZM27.355,26.048h-4.2V19.294c0-1.7-.608-2.855-2.126-2.855a2.3,2.3,0,0,0-2.153,1.535A2.874,2.874,0,0,0,18.742,19v7.05h-4.2s.055-11.441,0-12.625h4.2V15.21a4.166,4.166,0,0,1,3.782-2.084c2.761,0,4.831,1.8,4.831,5.682Zm0,0" transform="translate(0 0)" fill="#4d4d4d"/></g></svg>