<?xml version="1.0" encoding="UTF-8" standalone="no"?>
<svg
   xmlns:dc="http://purl.org/dc/elements/1.1/"
   xmlns:cc="http://creativecommons.org/ns#"
   xmlns:rdf="http://www.w3.org/1999/02/22-rdf-syntax-ns#"
   xmlns:svg="http://www.w3.org/2000/svg"
   xmlns="http://www.w3.org/2000/svg"
   xmlns:sodipodi="http://sodipodi.sourceforge.net/DTD/sodipodi-0.dtd"
   xmlns:inkscape="http://www.inkscape.org/namespaces/inkscape"
   version="1.1"
   id="Layer_1"
   x="0px"
   y="0px"
   width="653"
   height="211"
   viewBox="0 0 653 211"
   enable-background="new 0 0 1024 576"
   xml:space="preserve">
<path
   d="M 100.6411,52.241618 57.015001,202.97434 c -1.605132,4.72054 -7.210496,7.86707 -14.01341,7.86707 H 9.7843982 c -8.0078749,0 -11.2048,-5.35044 -9.20394288,-11.01361 L 65.817291,7.8670526 C 67.416494,3.1450297 73.831094,0.00294295 79.833666,0.00294295 H 134.6616 c 6.00109,0 12.40087,3.14356885 14.00896,7.86410965 L 219.11111,199.8278 c 2.00086,5.66169 -1.19755,11.01361 -9.20394,11.01361 h -36.01988 c -6.80291,0 -12.40828,-2.82788 -14.01489,-7.86707 L 147.06098,163.63897 H 83.10025 c -1.769647,-0.0385 -2.722648,-1.12196 -2.358047,-2.45439 l 9.169854,-32.91336 c 0.364601,-1.33242 1.842271,-2.39954 3.391082,-2.39954 H 135.06473 L 113.45251,52.241618 c -2.80416,-9.442564 -10.01614,-9.759737 -12.81141,0 z"
   id="path25"
   style="fill:#c5ac8a;fill-opacity:1"
   inkscape:connector-curvature="0" /><path
   d="M 533.94968,52.241618 490.32359,202.97434 c -1.59772,4.72054 -7.20902,7.86707 -14.01193,7.86707 h -33.21719 c -7.99899,0 -11.20629,-5.35044 -9.20543,-11.01361 L 499.12736,7.8670526 c 1.5992,-4.7220229 8.00787,-7.86410965 14.01489,-7.86410965 h 54.82201 c 6.00701,0 12.41568,3.14356885 14.02082,7.86410965 L 652.41969,199.8278 c 2.00086,5.66169 -1.19755,11.01361 -9.20542,11.01361 h -36.01691 c -6.80292,0 -12.40828,-2.82788 -14.02082,-7.86707 l -12.7966,-39.33537 h -63.96073 c -1.77706,-0.0385 -2.73154,-1.12196 -2.36842,-2.45439 l 9.16985,-32.91336 c 0.3735,-1.33242 1.84227,-2.39954 3.39109,-2.39954 h 41.76011 L 546.75517,52.241618 c -2.79675,-9.442564 -9.99984,-9.759737 -12.80549,0 z"
   id="path27"
   style="fill:#c5ac8a;fill-opacity:1"
   inkscape:connector-curvature="0" /><path
   d="M 332.22475,156.34844 377.51378,8.0197106 c 1.5992,-4.7205408 7.21791,-7.8670739 14.02082,-7.8670739 h 33.21571 c 8.00195,0 11.20036,5.3504402 9.1995,11.0165713 L 368.71001,203.13292 C 367.11229,207.8505 360.71103,211 354.70549,211 h -54.8309 c -5.99812,0 -12.40827,-3.1495 -14.01489,-7.86708 L 215.42657,11.17069 c -2.00086,-5.666131 1.19755,-11.01657118 9.20394,-11.01657118 h 36.02136 c 6.80291,0 12.40827,2.83084228 14.01341,7.86707388 L 322.24121,156.66265 c 2.80861,9.43219 7.1942,9.44256 9.98354,-0.31421 z"
   id="path29"
   style="fill:#c5ac8a;fill-opacity:1"
   inkscape:connector-curvature="0" />
</svg>